<?xml version="1.0" encoding="UTF-8" standalone="no"?>
<!-- Created with Inkscape (http://www.inkscape.org/) -->

<svg
   xmlns:dc="http://purl.org/dc/elements/1.1/"
   xmlns:cc="http://creativecommons.org/ns#"
   xmlns:rdf="http://www.w3.org/1999/02/22-rdf-syntax-ns#"
   xmlns:svg="http://www.w3.org/2000/svg"
   xmlns="http://www.w3.org/2000/svg"
   xmlns:sodipodi="http://sodipodi.sourceforge.net/DTD/sodipodi-0.dtd"
   xmlns:inkscape="http://www.inkscape.org/namespaces/inkscape"
   width="226.06198mm"
   height="290mm"
   viewBox="0 0 226.06198 290"
   version="1.1"
   id="svg8"
   inkscape:version="0.92.1 r15371"
   sodipodi:docname="Semelles.svg">
  <defs
     id="defs2" />
  <sodipodi:namedview
     id="base"
     pagecolor="#ffffff"
     bordercolor="#666666"
     borderopacity="1.0"
     inkscape:pageopacity="0.0"
     inkscape:pageshadow="2"
     inkscape:zoom="0.26972257"
     inkscape:cx="-234.12161"
     inkscape:cy="497.9383"
     inkscape:document-units="mm"
     inkscape:current-layer="layer1"
     showgrid="false"
     inkscape:window-width="1366"
     inkscape:window-height="705"
     inkscape:window-x="-8"
     inkscape:window-y="-8"
     inkscape:window-maximized="1"
     fit-margin-top="0"
     fit-margin-left="0"
     fit-margin-right="0"
     fit-margin-bottom="0" />
  <metadata
     id="metadata5">
    <rdf:RDF>
      <cc:Work
         rdf:about="">
        <dc:format>image/svg+xml</dc:format>
        <dc:type
           rdf:resource="http://purl.org/dc/dcmitype/StillImage" />
        <dc:title></dc:title>
      </cc:Work>
    </rdf:RDF>
  </metadata>
  <g
     inkscape:label="Calque 1"
     inkscape:groupmode="layer"
     id="layer1"
     style="display:inline"
     transform="translate(-8.5094695,-2.0939648)">
    <path
       style="fill:none;stroke:#ff0000;stroke-width:0.34775233;stroke-miterlimit:4;stroke-dasharray:none;stroke-opacity:1"
       d="m 69.201599,2.2735141 c -3.135566,-0.03 -6.924601,0.360995 -8.591937,1.013986 -3.258974,1.276681 -5.911786,2.559663 -5.911786,2.859459 0,0.157997 -0.151698,0.286996 -0.336195,0.286996 -0.418094,0 -2.965497,1.623676 -4.358457,2.77726 -1.282742,1.0624849 -6.28811,6.0687129 -7.484146,7.4861919 -4.762284,5.64402 -7.506159,9.384866 -9.052424,12.340524 -0.650391,1.243182 -1.277406,2.339267 -1.393726,2.434865 -0.76061,0.624991 -6.27433,10.925044 -9.028655,16.866059 -0.798059,1.721375 -2.284561,4.85113 -3.303645,6.954999 -1.01909,2.10387 -2.356581,5.390123 -2.97152,7.302796 -0.614951,1.912672 -1.245739,3.790545 -1.402555,4.17304 -0.156808,0.382995 -0.760829,2.416865 -1.342104,4.520735 -0.581292,2.10397 -1.277811,4.607134 -1.547908,5.563421 -0.945026,3.345952 -1.564649,6.283609 -1.942522,9.215467 -0.209527,1.625677 -0.7205501,4.677933 -1.1356282,6.781803 -0.6733703,3.412751 -0.7490393,4.855831 -0.7050099,13.387814 0.045599,8.82407 0.2938658,12.77641 1.5180191,24.16875 0.428044,3.98344 1.928959,12.43043 2.446493,13.76881 0.191697,0.49599 0.559472,2.06067 0.817758,3.47755 0.258296,1.41688 0.811998,4.14114 1.230038,6.05371 0.835958,3.82464 1.919479,9.53046 2.476376,13.04011 0.197267,1.24318 0.505203,3.12106 0.68464,4.17294 0.470233,2.75666 1.981895,16.40707 2.426118,21.90839 0.208487,2.58206 0.435074,14.55419 0.503293,26.60382 0.111108,19.61302 0.249907,25.78083 0.72199,32.16634 0.276696,3.74264 1.23218,11.32133 1.578471,12.51912 0.348665,1.20598 0.446124,1.46588 1.440592,3.82524 0.282156,0.66899 0.801359,1.99957 1.153286,2.95586 0.69195,1.88037 3.039839,6.24361 3.87146,7.1942 0.288976,0.32999 0.398385,0.78599 0.249947,1.04318 -0.144988,0.251 -0.138558,0.344 0.0142,0.206 0.152828,-0.138 0.842928,0.40999 1.533643,1.21718 2.006639,2.34597 4.239524,4.40274 6.298252,5.80172 3.557286,2.41726 7.94896,4.50733 10.546682,5.01933 3.820576,0.75299 14.576252,0.69699 18.316758,-0.1 3.412511,-0.72299 7.68271,-2.63596 10.43256,-4.67353 2.335307,-1.73048 7.332535,-6.69551 7.939217,-7.88759 0.243396,-0.478 0.741189,-1.41708 1.106434,-2.08657 0.365295,-0.66899 1.020015,-2.31257 1.454859,-3.65135 0.434794,-1.33888 0.895087,-2.51246 1.022875,-2.60816 0.127798,-0.1 0.575392,-2.20827 0.994986,-4.69464 0.419594,-2.48646 0.818388,-4.60983 0.885687,-4.71913 0.185598,-0.30099 0.174198,-6.7615 -0.024,-13.18951 -0.211397,-6.8661 -0.765189,-10.89124 -5.405773,-39.29664 -2.007731,-12.28942 -2.908698,-23.27876 -2.908358,-35.47069 2.1e-4,-6.20901 0.380194,-11.72063 0.851688,-12.34522 0.144398,-0.191 0.378294,-1.05199 0.519592,-1.91267 0.426094,-2.59517 1.901953,-8.13089 2.264488,-8.49348 0.186597,-0.187 0.339595,-0.56599 0.339595,-0.84399 0,-0.57399 2.137069,-6.39401 2.445135,-6.6595 0.110998,-0.1 0.564892,-1.19039 1.009315,-2.43357 0.830588,-2.32387 1.568288,-4.09774 2.964708,-7.1296 1.320571,-2.86726 1.826754,-4.05544 2.79967,-6.57001 0.876987,-2.26646 3.50602,-10.22775 4.376117,-13.25191 0.220097,-0.76499 0.607388,-2.09517 0.860588,-2.95585 1.59725,-5.43133 3.49482,-15.270186 3.78928,-19.647324 0.73609,-10.942143 -0.40959,-34.091211 -2.05935,-41.609403 -2.786125,-12.696718 -4.480241,-19.221325 -5.430237,-20.916801 -0.192897,-0.343995 -0.756089,-1.752475 -1.252442,-3.129755 -0.496393,-1.37718 -1.194503,-3.049256 -1.551298,-3.715847 -0.356795,-0.66699 -0.648691,-1.340281 -0.648691,-1.496978 0,-0.605992 -1.506538,-3.549149 -2.686241,-5.247525 C 86.327072,8.4750251 80.056082,4.2272861 72.811236,2.5867101 71.916749,2.3837131 70.626527,2.2837141 69.201268,2.2697141 Z m 106.927031,0.04 c -0.88198,-0.02 -1.85567,0.05 -3.29617,0.210997 -1.90429,0.210997 -3.63098,0.551992 -3.83684,0.757989 -0.2058,0.205997 -0.73659,0.374994 -1.1791,0.374994 -0.44249,0 -1.07587,0.142998 -1.40799,0.317996 -0.33209,0.174997 -1.46448,0.66199 -2.51644,1.081984 -3.87298,1.547478 -9.41906,6.2412109 -11.72441,9.9231579 -0.99709,1.592577 -2.53345,4.473236 -2.53345,4.749732 0,0.164998 -0.45189,1.271882 -1.00384,2.459365 -0.55189,1.187383 -1.29093,3.098055 -1.64232,4.245739 -0.35139,1.147484 -0.73049,2.164669 -0.84219,2.260368 -0.70569,0.603991 -4.10121,13.094012 -5.19996,19.126326 -0.1915,1.051985 -0.49389,2.616862 -0.67109,3.47755 -0.4344,2.109669 -1.35099,11.609833 -1.67765,17.387651 -0.146,2.582063 -0.23789,8.998071 -0.20439,14.257795 0.062,9.748461 0.35899,12.659519 2.00364,19.635122 0.27219,1.15428 0.59709,2.72536 0.72129,3.49045 0.12429,0.76499 0.58689,2.56466 1.02833,3.99914 0.44149,1.43448 1.14918,3.78175 1.57303,5.21623 1.00448,3.39975 1.79431,5.76651 3.13316,9.38936 0.6008,1.62568 1.25449,3.42535 1.45214,3.99914 0.1976,0.574 0.81209,2.01098 1.36586,3.19426 0.5538,1.18338 1.00726,2.24167 1.00726,2.35147 0,0.10999 0.30479,0.86298 0.67789,1.67347 0.37309,0.81099 1.16556,2.72646 1.76051,4.25664 0.595,1.53008 1.38494,3.41775 1.75574,4.19544 0.37079,0.77799 0.67439,1.56008 0.67509,1.73878 6.9e-4,0.179 0.44629,1.42068 0.99029,2.75956 0.54389,1.33888 1.18207,3.52965 1.41748,4.86853 0.2354,1.33888 0.5881,2.90376 0.78379,3.47755 0.90119,2.64226 1.44547,7.92499 1.46979,14.2578 0.026,6.7253 -0.58559,17.92394 -1.16823,21.38679 -0.1769,1.05198 -0.57419,4.25994 -0.88299,7.1289 -0.64709,6.01301 -0.56889,5.47282 -1.72243,11.82363 -0.4864,2.67766 -1.05044,6.27691 -1.25385,7.99828 -0.20339,1.72138 -0.51459,3.59925 -0.69139,4.17304 -0.17689,0.57399 -0.55539,2.60807 -0.84148,4.52074 -0.2862,1.91267 -0.87059,5.51192 -1.29865,7.99828 -0.6814,3.95785 -0.78009,5.77672 -0.79059,14.60559 -0.014,10.66155 0.19329,12.90802 1.74622,19.03203 0.93429,3.68455 2.41423,7.0711 3.90134,8.92807 1.09798,1.37108 4.46913,4.81303 5.52942,5.64562 4.53457,3.56055 9.06904,5.61382 14.54513,6.58621 5.16476,0.91698 15.14021,0.69499 18.08449,-0.402 2.07807,-0.77499 5.44167,-2.46266 6.43203,-3.22825 0.28689,-0.222 1.06935,-0.70299 1.73877,-1.07048 3.94822,-2.16477 8.69433,-7.5546 11.11587,-12.62292 2.75825,-5.77322 3.74768,-8.05319 4.03852,-9.30577 0.1332,-0.57399 0.3566,-1.19978 0.4958,-1.39098 0.1393,-0.191 0.35309,-1.52148 0.47549,-2.95596 0.1223,-1.43448 0.3807,-3.86004 0.57389,-5.39012 0.81829,-6.48031 1.02949,-12.28852 1.19948,-32.97943 0.099,-12.01813 0.24519,-21.95728 0.32529,-22.08708 0.08,-0.13 0.3205,-2.65986 0.53389,-5.62172 0.4572,-6.34571 1.67376,-17.58865 2.14424,-19.81642 0.1817,-0.86098 0.63009,-3.41015 0.99639,-5.66462 0.36629,-2.25446 0.74989,-4.36703 0.85239,-4.69463 0.10259,-0.32799 0.57499,-2.78586 1.05005,-5.46352 0.85409,-4.81433 1.29011,-6.9357 2.6095,-12.69292 1.31113,-5.72122 2.25108,-10.93085 2.63464,-14.60559 0.10969,-1.05199 0.34609,-2.61687 0.52569,-3.47755 1.65441,-7.92729 1.73757,-30.106873 0.1373,-36.62948 -0.2736,-1.115184 -0.4972,-2.668761 -0.4972,-3.45235 0,-1.542378 -1.81065,-10.819845 -2.66314,-13.645905 -0.28849,-0.955986 -0.84509,-2.834159 -1.23616,-4.17304 -1.94999,-6.675404 -3.53352,-11.254939 -4.29665,-12.424622 -0.46529,-0.71299 -0.84559,-1.450779 -0.84559,-1.638976 0,-0.912987 -8.93779,-18.965028 -10.08209,-20.363908 -0.1564,-0.190997 -0.79369,-1.286682 -1.41615,-2.434265 -0.62239,-1.147484 -1.54766,-2.712461 -2.05661,-3.477451 -0.509,-0.764989 -1.12918,-1.899673 -1.37812,-2.521264 -0.2489,-0.621991 -0.59059,-1.130184 -0.75869,-1.130184 -0.1681,0 -0.305,-0.155997 -0.305,-0.346995 0,-0.382994 -2.32074,-3.713046 -2.7107,-3.889044 -0.1349,-0.06 -1.00409,-1.049685 -1.93165,-2.197268 -2.78813,-3.449551 -6.66831,-7.348695 -10.6472,-10.6994469 -0.90129,-0.758989 -3.50263,-2.341267 -3.84904,-2.341267 -0.1846,0 -0.3355,-0.121998 -0.3355,-0.271996 0,-0.526992 -6.11181,-2.803059 -9.36079,-3.48565 -1.07317,-0.224996 -1.86333,-0.344995 -2.74534,-0.367994 z"
       id="path4513"
       inkscape:connector-curvature="0" />
  </g>
  <g
     inkscape:groupmode="layer"
     id="layer2"
     inkscape:label="Tracé"
     transform="translate(-8.5094695,-2.0939648)" />
</svg>
